# xmcd
#
# Track frame offsets:
#	150
#	17462
#	37949
#	54558
#	74495
#	94512
#	110488
#	126902
#	151222
#	173029
#
# Disc length: 2525 seconds
#
# Revision: 0
# Processed by: cddbd v1.5.2PL0 Copyright (c) Steve Scherf et al.
# Submitted via: EZCDAudioConverter 2.0.7.1
#
DISCID=7709db0a
DTITLE=Espoir 2000 - Génération Consciente
DYEAR=1900
DGENRE=Zouglou
TTITLE0=Bats-Toi
TTITLE1=Les Caissières
TTITLE2=Kognini
TTITLE3=Mon Ami
TTITLE4=Mon Afrique
TTITLE5=C'est Gaté
TTITLE6=On Est !
TTITLE7=Souffrance
TTITLE8=Laisse Tomber
TTITLE9=Mon Dieu
EXTD=
EXTT0=
EXTT1=
EXTT2=
EXTT3=
EXTT4=
EXTT5=
EXTT6=
EXTT7=
EXTT8=
EXTT9=
PLAYORDER=
